<svg width="16" height="15" viewBox="0 0 16 15" fill="none" xmlns="http://www.w3.org/2000/svg">
<path d="M10.9635 7.41117L6.56146 3.00917C6.49782 2.94946 6.41856 2.90898 6.33287 2.89242C6.24718 2.87587 6.15855 2.88392 6.07724 2.91563C5.99712 2.94931 5.92877 3.00594 5.88079 3.0784C5.83281 3.15087 5.80735 3.23591 5.80762 3.32281V12.1268C5.80735 12.2137 5.83281 12.2988 5.88079 12.3712C5.92877 12.4437 5.99712 12.5003 6.07724 12.534C6.13154 12.5556 6.1894 12.5668 6.24782 12.567C6.36471 12.5665 6.47696 12.5212 6.56146 12.4405L10.9635 8.03846C11.0461 7.955 11.0925 7.84228 11.0925 7.72481C11.0925 7.60735 11.0461 7.49463 10.9635 7.41117Z" fill="black"/>
</svg>
