<svg width="123" height="67" viewBox="0 0 123 67" fill="none" xmlns="http://www.w3.org/2000/svg">
<g filter="url(#filter0_d_1_1147)">
<path d="M28.2195 41.6532C28.7627 41.6532 29.3007 41.5464 29.8025 41.3385C30.3044 41.1307 30.7604 40.826 31.1445 40.4419C31.5286 40.0579 31.8334 39.6019 32.0412 39.1C32.2491 38.5981 32.3561 38.0603 32.3561 37.5171C32.3561 29.8377 35.4068 22.4728 40.8369 17.0426C46.267 11.6124 53.632 8.56181 61.3114 8.56181C68.9907 8.56181 76.3558 11.6124 81.7858 17.0426C87.2161 22.4728 90.2666 29.8377 90.2666 37.5171C90.2774 38.6069 90.718 39.6485 91.4927 40.4153C92.267 41.1821 93.313 41.6124 94.4032 41.6124C95.493 41.6124 96.539 41.1821 97.3133 40.4153C98.088 39.6485 98.5286 38.6069 98.5394 37.5171C98.5394 32.6282 97.5764 27.7872 95.7057 23.2705C93.8346 18.7538 91.0925 14.6498 87.6357 11.1929C84.1784 7.73594 80.0745 4.99375 75.558 3.12288C71.041 1.25199 66.2004 0.289062 61.3114 0.289062C56.4224 0.289062 51.5817 1.25199 47.0648 3.12288C42.5481 4.99375 38.4441 7.73594 34.9872 11.1929C31.5303 14.6498 28.7881 18.7538 26.9172 23.2705C25.0463 27.7872 24.0834 32.6282 24.0834 37.5171C24.0834 38.614 24.5192 39.6661 25.2948 40.4418C26.0705 41.2174 27.1226 41.6532 28.2195 41.6532Z" fill="url(#paint0_linear_1_1147)"/>
<path d="M114.258 49.926H77.8438C80.5399 46.3515 81.996 41.9948 81.9915 37.5171C81.9915 32.0318 79.8123 26.7712 75.9338 22.8925C72.0549 19.0138 66.7943 16.8348 61.309 16.8348C55.8241 16.8348 50.5634 19.0138 46.6845 22.8925C42.8059 26.7712 40.6269 32.0318 40.6269 37.5171C40.6269 38.6142 41.0627 39.6663 41.8385 40.4421C42.6142 41.2179 43.6664 41.6537 44.7635 41.6537C45.8607 41.6537 46.9129 41.2179 47.6884 40.4421C48.4644 39.6663 48.9001 38.6142 48.9001 37.5171C48.9001 35.0627 49.6277 32.6635 50.9913 30.6228C52.3549 28.582 54.2929 26.9914 56.5604 26.0521C58.8279 25.1128 61.323 24.867 63.7301 25.3458C66.1373 25.8245 68.3486 27.0064 70.0839 28.7418C71.8195 30.4773 73.0014 32.6884 73.4805 35.0956C73.9591 37.5028 73.7134 39.9979 72.7743 42.2653C71.8348 44.5328 70.2445 46.4712 68.2037 47.8348C66.1629 49.1984 63.7636 49.926 61.3094 49.926H8.36469C7.81801 49.9207 7.27567 50.0235 6.76903 50.2291C6.26239 50.4344 5.8015 50.7383 5.41299 51.1228C5.02449 51.5077 4.71608 51.9652 4.50561 52.4698C4.29513 52.9745 4.18677 53.5159 4.18677 54.0626C4.18677 54.6089 4.29513 55.1503 4.50561 55.655C4.71608 56.1596 5.02449 56.6172 5.41299 57.002C5.8015 57.3865 6.26239 57.6904 6.76903 57.8957C7.27567 58.1013 7.81801 58.2042 8.36469 58.1988H114.258C115.348 58.188 116.39 57.7474 117.156 56.9727C117.923 56.1984 118.354 55.1524 118.354 54.0626C118.354 52.9724 117.923 51.9264 117.156 51.1521C116.39 50.3774 115.348 49.9368 114.258 49.926Z" fill="url(#paint1_linear_1_1147)"/>
</g>
<defs>
<filter id="filter0_d_1_1147" x="0.186768" y="0.289062" width="122.167" height="65.9099" filterUnits="userSpaceOnUse" color-interpolation-filters="sRGB">
<feFlood flood-opacity="0" result="BackgroundImageFix"/>
<feColorMatrix in="SourceAlpha" type="matrix" values="0 0 0 0 0 0 0 0 0 0 0 0 0 0 0 0 0 0 127 0" result="hardAlpha"/>
<feOffset dy="4"/>
<feGaussianBlur stdDeviation="2"/>
<feComposite in2="hardAlpha" operator="out"/>
<feColorMatrix type="matrix" values="0 0 0 0 0 0 0 0 0 0 0 0 0 0 0 0 0 0 0.25 0"/>
<feBlend mode="normal" in2="BackgroundImageFix" result="effect1_dropShadow_1_1147"/>
<feBlend mode="normal" in="SourceGraphic" in2="effect1_dropShadow_1_1147" result="shape"/>
</filter>
<linearGradient id="paint0_linear_1_1147" x1="24.0834" y1="20.9711" x2="98.5394" y2="20.9711" gradientUnits="userSpaceOnUse">
<stop stop-color="#DD1B60"/>
<stop offset="0.243" stop-color="#DE1D5B"/>
<stop offset="0.495" stop-color="#E2254F"/>
<stop offset="0.751" stop-color="#EA313A"/>
<stop offset="1" stop-color="#F4431F"/>
</linearGradient>
<linearGradient id="paint1_linear_1_1147" x1="4.18677" y1="37.5169" x2="118.354" y2="37.5169" gradientUnits="userSpaceOnUse">
<stop stop-color="#DD1B60"/>
<stop offset="0.243" stop-color="#DE1D5B"/>
<stop offset="0.495" stop-color="#E2254F"/>
<stop offset="0.751" stop-color="#EA313A"/>
<stop offset="1" stop-color="#F4431F"/>
</linearGradient>
</defs>
</svg>
