<svg width="78" height="79" viewBox="0 0 78 79" fill="none" xmlns="http://www.w3.org/2000/svg">
<g filter="url(#filter0_d_1_1127)">
<path d="M63.6629 60.1455C70.1944 53.589 73.8559 44.7081 73.8433 35.4538C73.8363 34.8826 73.6047 34.337 73.1983 33.9356C72.7918 33.5339 72.2438 33.309 71.6726 33.309C71.1011 33.309 70.553 33.5339 70.1465 33.9356C69.7401 34.337 69.5085 34.8826 69.5015 35.4538C69.5107 43.5639 66.3003 51.3464 60.5757 57.0913C57.7967 59.9444 54.4744 62.212 50.8046 63.7606C47.1351 65.3088 43.1925 66.1065 39.2096 66.1065C35.2268 66.1065 31.2842 65.3088 27.6146 63.7606C23.945 62.212 20.6227 59.9444 17.8436 57.0913C12.1267 51.3407 8.91782 43.5613 8.91782 35.4525C8.91782 27.3435 12.1267 19.5641 17.8436 13.8134C20.6065 10.9822 23.9039 8.72768 27.5446 7.18046C31.1854 5.63327 35.097 4.82416 39.0528 4.80008C39.8974 4.82653 40.6983 5.18195 41.2847 5.79049C41.8711 6.39901 42.1964 7.21255 42.1914 8.05759C42.1866 8.90262 41.8518 9.7123 41.2584 10.314C40.665 10.9157 39.86 11.2617 39.0151 11.2783C38.9369 11.2785 38.8586 11.2828 38.781 11.2913C32.7626 11.4852 27.0522 13.9981 22.8437 18.3047C18.3992 22.7788 15.9048 28.8292 15.9048 35.1357C15.9048 41.4422 18.3992 47.4925 22.8437 51.9667C25.015 54.1909 27.6092 55.9584 30.4737 57.1651C33.3381 58.3718 36.4151 58.9933 39.5233 58.9933C42.6314 58.9933 45.7085 58.3718 48.573 57.1651C51.4372 55.9584 54.0315 54.1909 56.2028 51.9667C60.6542 47.4973 63.1497 41.4438 63.1408 35.1357C63.15 34.1422 62.9621 33.1563 62.5883 32.2357C62.2141 31.3152 61.6616 30.4778 60.9621 29.772C60.2626 29.0661 59.4304 28.5058 58.5133 28.1234C57.5961 27.7411 56.6125 27.5442 55.6187 27.5442C54.6249 27.5442 53.6412 27.7411 52.7241 28.1234C51.8069 28.5058 50.9747 29.0661 50.2752 29.772C49.5757 30.4778 49.0232 31.3152 48.649 32.2357C48.2752 33.1563 48.0874 34.1422 48.0965 35.1357C48.0965 35.199 48.1007 35.2586 48.1057 35.3194C48.1007 35.3802 48.0965 35.4411 48.0965 35.5032C48.1108 37.2354 47.6099 38.9329 46.6576 40.3803C45.7056 41.8275 44.345 42.9591 42.7486 43.632C41.1523 44.3045 39.3918 44.488 37.6912 44.1588C35.9903 43.8293 34.4257 43.0025 33.1957 41.7825C31.9658 40.5625 31.1259 39.0048 30.7827 37.3067C30.4395 35.6087 30.6085 33.8469 31.2681 32.2452C31.9277 30.6432 33.0484 29.2734 34.4878 28.3094C35.9272 27.3454 37.6206 26.8308 39.3528 26.8307C39.6402 26.8342 39.9253 26.7806 40.1917 26.6731C40.4582 26.5655 40.7005 26.4062 40.9048 26.2043C41.1092 26.0023 41.2717 25.7619 41.3823 25.4967C41.4931 25.2316 41.5502 24.9472 41.5502 24.6599C41.5502 24.3726 41.4931 24.0881 41.3823 23.823C41.2717 23.5579 41.1092 23.3174 40.9048 23.1155C40.7005 22.9135 40.4582 22.7542 40.1917 22.6466C39.9253 22.5391 39.6402 22.4855 39.3528 22.489C36.782 22.5032 34.2728 23.2787 32.1421 24.7174C30.0114 26.1561 28.3545 28.1937 27.3806 30.573C26.4066 32.9523 26.1592 35.5668 26.6695 38.0867C27.1798 40.6065 28.425 42.9185 30.248 44.7316C32.071 46.5443 34.3901 47.7767 36.9128 48.2731C39.4352 48.7692 42.0485 48.5072 44.4223 47.5201C46.7961 46.5329 48.8246 44.865 50.2514 42.7262C51.6783 40.5875 52.4396 38.074 52.4396 35.5032C52.4396 35.4398 52.4354 35.3802 52.4304 35.3194C52.4354 35.2586 52.4396 35.1978 52.4396 35.1357C52.431 34.7127 52.507 34.2924 52.6632 33.8989C52.8191 33.5057 53.0523 33.1474 53.3482 32.8455C53.6444 32.5433 53.9979 32.3032 54.3879 32.1394C54.7779 31.9756 55.197 31.8912 55.6199 31.8912C56.0429 31.8912 56.462 31.9756 56.852 32.1394C57.242 32.3032 57.5955 32.5433 57.8917 32.8455C58.1876 33.1474 58.4208 33.5057 58.5766 33.8989C58.7328 34.2924 58.8089 34.7127 58.8003 35.1357C58.806 40.3002 56.7617 45.2556 53.1163 48.9137C51.3488 50.7296 49.2354 52.1726 46.9009 53.1582C44.5664 54.1437 42.058 54.6513 39.5239 54.6513C36.9901 54.6513 34.4818 54.1437 32.1473 53.1582C29.8127 52.1726 27.6994 50.7296 25.9319 48.9137C22.2914 45.2524 20.2479 40.2989 20.2479 35.1357C20.2479 29.9725 22.2914 25.0191 25.9319 21.3577C27.7008 19.5441 29.8142 18.1024 32.1481 17.1171C34.482 16.1318 36.9892 15.6228 39.5226 15.6201C39.7175 15.6196 39.9114 15.5927 40.0992 15.5403C41.9474 15.2568 43.6255 14.301 44.8123 12.8562C45.999 11.4114 46.6104 9.57928 46.5293 7.71139C46.4482 5.84346 45.68 4.07128 44.3725 2.73479C43.0651 1.39828 41.3103 0.591571 39.4447 0.46941C39.3668 0.460921 39.2882 0.456585 39.2096 0.456421C39.1659 0.456421 39.1225 0.456421 39.0788 0.456421C39.0573 0.456421 39.0364 0.456421 39.0154 0.456421C38.9945 0.456421 38.973 0.458954 38.9521 0.459587C34.4389 0.49508 29.9775 1.42358 25.8249 3.19156C21.6722 4.95953 17.9107 7.53201 14.757 10.7607C8.23632 17.3241 4.5766 26.2004 4.5766 35.4525C4.5766 44.7043 8.23632 53.5805 14.757 60.1439C17.9398 63.4054 21.7429 65.9975 25.9425 67.7668C30.142 69.5365 34.6531 70.4482 39.2103 70.4482C43.7675 70.4482 48.2784 69.5365 52.4782 67.7668C56.6777 65.9975 60.4806 63.4054 63.6635 60.1439L63.6629 60.1455Z" fill="url(#paint0_linear_1_1127)"/>
</g>
<defs>
<filter id="filter0_d_1_1127" x="0.576599" y="0.456421" width="77.2667" height="77.9918" filterUnits="userSpaceOnUse" color-interpolation-filters="sRGB">
<feFlood flood-opacity="0" result="BackgroundImageFix"/>
<feColorMatrix in="SourceAlpha" type="matrix" values="0 0 0 0 0 0 0 0 0 0 0 0 0 0 0 0 0 0 127 0" result="hardAlpha"/>
<feOffset dy="4"/>
<feGaussianBlur stdDeviation="2"/>
<feComposite in2="hardAlpha" operator="out"/>
<feColorMatrix type="matrix" values="0 0 0 0 0 0 0 0 0 0 0 0 0 0 0 0 0 0 0.25 0"/>
<feBlend mode="normal" in2="BackgroundImageFix" result="effect1_dropShadow_1_1127"/>
<feBlend mode="normal" in="SourceGraphic" in2="effect1_dropShadow_1_1127" result="shape"/>
</filter>
<linearGradient id="paint0_linear_1_1127" x1="14.6203" y1="60.0194" x2="58.6375" y2="16.9429" gradientUnits="userSpaceOnUse">
<stop stop-color="#41287B"/>
<stop offset="0.123" stop-color="#462779"/>
<stop offset="0.284" stop-color="#572775"/>
<stop offset="0.465" stop-color="#72266E"/>
<stop offset="0.663" stop-color="#982565"/>
<stop offset="0.87" stop-color="#C82459"/>
<stop offset="0.99" stop-color="#E72452"/>
</linearGradient>
</defs>
</svg>
