<svg width="23" height="23" viewBox="0 0 23 23" fill="none" xmlns="http://www.w3.org/2000/svg">
<path d="M11.3855 16.5794L15.7187 19.3306C16.2775 19.6831 16.9653 19.1587 16.802 18.5139L15.5467 13.5788C15.5128 13.442 15.5182 13.2984 15.5623 13.1646C15.6064 13.0307 15.6874 12.912 15.7961 12.8222L19.6822 9.58089C20.1895 9.15961 19.9315 8.30844 19.2695 8.26545L14.1969 7.93874C14.0585 7.93069 13.9254 7.88249 13.814 7.80004C13.7025 7.71759 13.6175 7.60446 13.5693 7.47447L11.6778 2.71137C11.6277 2.57372 11.5365 2.45482 11.4165 2.37079C11.2966 2.28677 11.1536 2.2417 11.0072 2.2417C10.8607 2.2417 10.7178 2.28677 10.5978 2.37079C10.4778 2.45482 10.3866 2.57372 10.3366 2.71137L8.44507 7.47447C8.39686 7.60446 8.31183 7.71759 8.20037 7.80004C8.08891 7.88249 7.95585 7.93069 7.81744 7.93874L2.74482 8.26545C2.0828 8.30844 1.82488 9.15961 2.33214 9.58089L6.21828 12.8222C6.3269 12.912 6.40793 13.0307 6.45204 13.1646C6.49615 13.2984 6.50155 13.442 6.46761 13.5788L5.30693 18.1528C5.10918 18.9265 5.93455 19.5542 6.59657 19.1329L10.6289 16.5794C10.7419 16.5075 10.8732 16.4693 11.0072 16.4693C11.1412 16.4693 11.2724 16.5075 11.3855 16.5794Z" fill="#E13C5A" stroke="#E13C5A" stroke-width="1.37563" stroke-linecap="round" stroke-linejoin="round"/>
</svg>
