<svg width="20" height="20" viewBox="0 0 20 20" fill="none" xmlns="http://www.w3.org/2000/svg">
<path d="M10.555 15.5794L14.8882 18.3306C15.4471 18.6831 16.1349 18.1587 15.9715 17.5139L14.7163 12.5788C14.6823 12.442 14.6877 12.2984 14.7319 12.1646C14.776 12.0307 14.857 11.912 14.9656 11.8222L18.8518 8.58089C19.359 8.15961 19.1011 7.30844 18.4391 7.26545L13.3665 6.93874C13.2281 6.93069 13.095 6.88249 12.9835 6.80004C12.8721 6.71759 12.787 6.60446 12.7388 6.47447L10.8473 1.71137C10.7973 1.57372 10.7061 1.45482 10.5861 1.37079C10.4661 1.28677 10.3232 1.2417 10.1767 1.2417C10.0303 1.2417 9.88734 1.28677 9.76736 1.37079C9.64739 1.45482 9.55618 1.57372 9.50611 1.71137L7.61463 6.47447C7.56642 6.60446 7.48139 6.71759 7.36993 6.80004C7.25847 6.88249 7.1254 6.93069 6.987 6.93874L1.91438 7.26545C1.25236 7.30844 0.994431 8.15961 1.50169 8.58089L5.38783 11.8222C5.49645 11.912 5.57749 12.0307 5.6216 12.1646C5.66571 12.2984 5.67111 12.442 5.63716 12.5788L4.47648 17.1528C4.27874 17.9265 5.10411 18.5542 5.76613 18.1329L9.79843 15.5794C9.9115 15.5075 10.0427 15.4693 10.1767 15.4693C10.3107 15.4693 10.4419 15.5075 10.555 15.5794V15.5794Z" stroke="#E13C5A" stroke-width="1.37563" stroke-linecap="round" stroke-linejoin="round"/>
</svg>
